<?xml version="1.0" encoding="UTF-8" standalone="no"?>
<!-- Generator: Gravit.io -->
<svg xmlns="http://www.w3.org/2000/svg" xmlns:xlink="http://www.w3.org/1999/xlink" style="isolation:isolate" viewBox="0 0 5300 980" width="5300pt" height="980pt"><defs><clipPath id="_clipPath_VnCyvyJraQ5sggYJaXnNoksa5YjoTg54"><rect width="5300" height="980"/></clipPath></defs><g clip-path="url(#_clipPath_VnCyvyJraQ5sggYJaXnNoksa5YjoTg54)"><path d=" M 1336.629 808.111 L 1336.629 647.477 L 1358.417 647.477 L 1358.417 847.207 L 1340.59 847.207 L 1220.331 686.573 L 1220.331 847.207 L 1198.543 847.207 L 1198.543 647.477 L 1216.37 647.477 L 1336.629 808.111 L 1336.629 808.111 Z  M 1427.176 847.207 L 1404.256 847.207 L 1404.256 709.237 L 1427.176 709.237 L 1427.176 847.207 L 1427.176 847.207 Z  M 1401.993 675.24 L 1401.993 649.46 L 1429.723 649.46 L 1429.723 675.24 L 1401.993 675.24 L 1401.993 675.24 Z  M 1585.352 773.264 L 1585.352 781.764 L 1484.618 781.764 L 1484.618 781.764 Q 1485.749 805.845 1497.634 818.168 L 1497.634 818.168 L 1497.634 818.168 Q 1509.518 830.492 1531.306 830.492 L 1531.306 830.492 L 1531.306 830.492 Q 1555.358 830.492 1575.448 814.06 L 1575.448 814.06 L 1583.088 830.775 L 1583.088 830.775 Q 1574.033 839.275 1559.885 844.233 L 1559.885 844.233 L 1559.885 844.233 Q 1545.737 849.19 1531.023 849.19 L 1531.023 849.19 L 1531.023 849.19 Q 1498.766 849.19 1480.232 830.209 L 1480.232 830.209 L 1480.232 830.209 Q 1461.698 811.227 1461.698 777.797 L 1461.698 777.797 L 1461.698 777.797 Q 1461.698 756.549 1469.904 740.259 L 1469.904 740.259 L 1469.904 740.259 Q 1478.109 723.969 1492.965 714.903 L 1492.965 714.903 L 1492.965 714.903 Q 1507.82 705.838 1526.779 705.838 L 1526.779 705.838 L 1526.779 705.838 Q 1554.226 705.838 1569.789 723.827 L 1569.789 723.827 L 1569.789 723.827 Q 1585.352 741.817 1585.352 773.264 L 1585.352 773.264 L 1585.352 773.264 Z  M 1527.062 723.686 L 1527.062 723.686 Q 1508.952 723.686 1498.058 735.018 L 1498.058 735.018 L 1498.058 735.018 Q 1487.164 746.35 1485.183 767.032 L 1485.183 767.032 L 1565.262 767.032 L 1565.262 767.032 Q 1564.696 746.067 1554.792 734.876 L 1554.792 734.876 L 1554.792 734.876 Q 1544.888 723.686 1527.062 723.686 L 1527.062 723.686 L 1527.062 723.686 Z  M 1718.344 647.477 L 1741.264 647.477 L 1741.264 847.207 L 1718.344 847.207 L 1718.344 821.993 L 1718.344 821.993 Q 1712.119 835.025 1700.093 842.108 L 1700.093 842.108 L 1700.093 842.108 Q 1688.067 849.19 1671.938 849.19 L 1671.938 849.19 L 1671.938 849.19 Q 1653.829 849.19 1639.963 840.125 L 1639.963 840.125 L 1639.963 840.125 Q 1626.098 831.059 1618.458 814.769 L 1618.458 814.769 L 1618.458 814.769 Q 1610.818 798.479 1610.818 776.947 L 1610.818 776.947 L 1610.818 776.947 Q 1610.818 755.699 1618.458 739.551 L 1618.458 739.551 L 1618.458 739.551 Q 1626.098 723.403 1639.963 714.62 L 1639.963 714.62 L 1639.963 714.62 Q 1653.829 705.838 1671.938 705.838 L 1671.938 705.838 L 1671.938 705.838 Q 1688.067 705.838 1700.093 712.92 L 1700.093 712.92 L 1700.093 712.92 Q 1712.119 720.003 1718.344 733.035 L 1718.344 733.035 L 1718.344 647.477 L 1718.344 647.477 Z  M 1676.466 830.209 L 1676.466 830.209 Q 1696.556 830.209 1707.45 816.469 L 1707.45 816.469 L 1707.45 816.469 Q 1718.344 802.728 1718.344 777.514 L 1718.344 777.514 L 1718.344 777.514 Q 1718.344 752.3 1707.45 738.701 L 1707.45 738.701 L 1707.45 738.701 Q 1696.556 725.102 1676.466 725.102 L 1676.466 725.102 L 1676.466 725.102 Q 1656.375 725.102 1645.198 738.701 L 1645.198 738.701 L 1645.198 738.701 Q 1634.021 752.3 1634.021 776.947 L 1634.021 776.947 L 1634.021 776.947 Q 1634.021 802.162 1645.198 816.185 L 1645.198 816.185 L 1645.198 816.185 Q 1656.375 830.209 1676.466 830.209 L 1676.466 830.209 L 1676.466 830.209 Z  M 1899.156 773.264 L 1899.156 781.764 L 1798.422 781.764 L 1798.422 781.764 Q 1799.554 805.845 1811.438 818.168 L 1811.438 818.168 L 1811.438 818.168 Q 1823.323 830.492 1845.111 830.492 L 1845.111 830.492 L 1845.111 830.492 Q 1869.162 830.492 1889.253 814.06 L 1889.253 814.06 L 1896.893 830.775 L 1896.893 830.775 Q 1887.838 839.275 1873.69 844.233 L 1873.69 844.233 L 1873.69 844.233 Q 1859.542 849.19 1844.828 849.19 L 1844.828 849.19 L 1844.828 849.19 Q 1812.57 849.19 1794.036 830.209 L 1794.036 830.209 L 1794.036 830.209 Q 1775.502 811.227 1775.502 777.797 L 1775.502 777.797 L 1775.502 777.797 Q 1775.502 756.549 1783.708 740.259 L 1783.708 740.259 L 1783.708 740.259 Q 1791.914 723.969 1806.769 714.903 L 1806.769 714.903 L 1806.769 714.903 Q 1821.625 705.838 1840.583 705.838 L 1840.583 705.838 L 1840.583 705.838 Q 1868.031 705.838 1883.593 723.827 L 1883.593 723.827 L 1883.593 723.827 Q 1899.156 741.817 1899.156 773.264 L 1899.156 773.264 L 1899.156 773.264 Z  M 1840.866 723.686 L 1840.866 723.686 Q 1822.757 723.686 1811.863 735.018 L 1811.863 735.018 L 1811.863 735.018 Q 1800.969 746.35 1798.988 767.032 L 1798.988 767.032 L 1879.066 767.032 L 1879.066 767.032 Q 1878.5 746.067 1868.597 734.876 L 1868.597 734.876 L 1868.597 734.876 Q 1858.693 723.686 1840.866 723.686 L 1840.866 723.686 L 1840.866 723.686 Z  M 2008.945 705.838 L 2010.926 725.669 L 1995.929 727.085 L 1995.929 727.085 Q 1974.707 729.069 1965.228 740.401 L 1965.228 740.401 L 1965.228 740.401 Q 1955.749 751.733 1955.749 768.448 L 1955.749 768.448 L 1955.749 847.207 L 1932.829 847.207 L 1932.829 709.237 L 1955.183 709.237 L 1955.183 733.318 L 1955.183 733.318 Q 1966.784 709.237 2000.74 706.404 L 2000.74 706.404 L 2008.945 705.838 L 2008.945 705.838 Z  M 2077.988 849.19 L 2077.988 849.19 Q 2043.184 849.19 2022.811 831.342 L 2022.811 831.342 L 2030.451 814.344 L 2030.451 814.344 Q 2041.486 823.126 2052.946 826.951 L 2052.946 826.951 L 2052.946 826.951 Q 2064.406 830.775 2078.837 830.775 L 2078.837 830.775 L 2078.837 830.775 Q 2094.117 830.775 2102.181 825.534 L 2102.181 825.534 L 2102.181 825.534 Q 2110.246 820.293 2110.246 810.377 L 2110.246 810.377 L 2110.246 810.377 Q 2110.246 802.162 2104.869 797.345 L 2104.869 797.345 L 2104.869 797.345 Q 2099.493 792.529 2087.043 789.696 L 2087.043 789.696 L 2063.84 784.313 L 2063.84 784.313 Q 2046.296 780.347 2036.959 770.715 L 2036.959 770.715 L 2036.959 770.715 Q 2027.621 761.082 2027.621 746.917 L 2027.621 746.917 L 2027.621 746.917 Q 2027.621 728.502 2042.052 717.17 L 2042.052 717.17 L 2042.052 717.17 Q 2056.483 705.838 2080.535 705.838 L 2080.535 705.838 L 2080.535 705.838 Q 2094.966 705.838 2107.982 710.512 L 2107.982 710.512 L 2107.982 710.512 Q 2120.998 715.187 2129.77 723.969 L 2129.77 723.969 L 2122.13 740.684 L 2122.13 740.684 Q 2103.172 724.536 2080.535 724.536 L 2080.535 724.536 L 2080.535 724.536 Q 2066.104 724.536 2058.039 730.06 L 2058.039 730.06 L 2058.039 730.06 Q 2049.975 735.585 2049.975 745.5 L 2049.975 745.5 L 2049.975 745.5 Q 2049.975 753.716 2054.927 758.674 L 2054.927 758.674 L 2054.927 758.674 Q 2059.879 763.632 2070.914 766.182 L 2070.914 766.182 L 2094.4 771.848 L 2094.4 771.848 Q 2113.641 776.381 2122.979 785.588 L 2122.979 785.588 L 2122.979 785.588 Q 2132.317 794.796 2132.317 809.528 L 2132.317 809.528 L 2132.317 809.528 Q 2132.317 827.659 2117.744 838.425 L 2117.744 838.425 L 2117.744 838.425 Q 2103.172 849.19 2077.988 849.19 L 2077.988 849.19 L 2077.988 849.19 Z  M 2223.147 705.838 L 2223.147 705.838 Q 2249.463 705.838 2262.338 719.295 L 2262.338 719.295 L 2262.338 719.295 Q 2275.212 732.752 2275.212 760.232 L 2275.212 760.232 L 2275.212 847.207 L 2252.858 847.207 L 2252.858 823.693 L 2252.858 823.693 Q 2247.482 835.875 2236.447 842.533 L 2236.447 842.533 L 2236.447 842.533 Q 2225.411 849.19 2210.98 849.19 L 2210.98 849.19 L 2210.98 849.19 Q 2197.681 849.19 2186.504 843.808 L 2186.504 843.808 L 2186.504 843.808 Q 2175.327 838.425 2168.819 828.792 L 2168.819 828.792 L 2168.819 828.792 Q 2162.311 819.16 2162.311 807.544 L 2162.311 807.544 L 2162.311 807.544 Q 2162.311 791.963 2170.234 783.322 L 2170.234 783.322 L 2170.234 783.322 Q 2178.157 774.681 2196.266 770.856 L 2196.266 770.856 L 2196.266 770.856 Q 2214.376 767.032 2246.633 767.032 L 2246.633 767.032 L 2252.858 767.032 L 2252.858 757.683 L 2252.858 757.683 Q 2252.858 740.401 2245.784 732.61 L 2245.784 732.61 L 2245.784 732.61 Q 2238.71 724.819 2222.865 724.819 L 2222.865 724.819 L 2222.865 724.819 Q 2199.096 724.819 2175.61 739.551 L 2175.61 739.551 L 2167.97 722.836 L 2167.97 722.836 Q 2178.722 715.187 2193.861 710.512 L 2193.861 710.512 L 2193.861 710.512 Q 2208.999 705.838 2223.147 705.838 L 2223.147 705.838 L 2223.147 705.838 Z  M 2214.093 831.059 L 2214.093 831.059 Q 2231.07 831.059 2241.964 819.585 L 2241.964 819.585 L 2241.964 819.585 Q 2252.858 808.111 2252.858 789.979 L 2252.858 789.979 L 2252.858 781.764 L 2247.765 781.764 L 2247.765 781.764 Q 2222.865 781.764 2209.848 783.888 L 2209.848 783.888 L 2209.848 783.888 Q 2196.832 786.013 2191.314 790.971 L 2191.314 790.971 L 2191.314 790.971 Q 2185.797 795.929 2185.797 805.561 L 2185.797 805.561 L 2185.797 805.561 Q 2185.797 816.61 2193.861 823.834 L 2193.861 823.834 L 2193.861 823.834 Q 2201.925 831.059 2214.093 831.059 L 2214.093 831.059 L 2214.093 831.059 Z  M 2375.381 849.19 L 2375.381 849.19 Q 2355.008 849.19 2340.011 840.408 L 2340.011 840.408 L 2340.011 840.408 Q 2325.014 831.625 2316.949 815.619 L 2316.949 815.619 L 2316.949 815.619 Q 2308.885 799.612 2308.885 778.081 L 2308.885 778.081 L 2308.885 778.081 Q 2308.885 756.549 2317.232 740.259 L 2317.232 740.259 L 2317.232 740.259 Q 2325.58 723.969 2340.718 714.903 L 2340.718 714.903 L 2340.718 714.903 Q 2355.856 705.838 2376.23 705.838 L 2376.23 705.838 L 2376.23 705.838 Q 2390.095 705.838 2403.394 710.795 L 2403.394 710.795 L 2403.394 710.795 Q 2416.693 715.753 2424.899 723.969 L 2424.899 723.969 L 2417.259 740.967 L 2417.259 740.967 Q 2397.735 725.102 2377.645 725.102 L 2377.645 725.102 L 2377.645 725.102 Q 2356.422 725.102 2344.538 738.984 L 2344.538 738.984 L 2344.538 738.984 Q 2332.654 752.866 2332.654 778.081 L 2332.654 778.081 L 2332.654 778.081 Q 2332.654 803.011 2344.538 816.61 L 2344.538 816.61 L 2344.538 816.61 Q 2356.422 830.209 2377.645 830.209 L 2377.645 830.209 L 2377.645 830.209 Q 2397.735 830.209 2417.259 814.344 L 2417.259 814.344 L 2424.899 831.342 L 2424.899 831.342 Q 2416.127 839.558 2402.828 844.374 L 2402.828 844.374 L 2402.828 844.374 Q 2389.529 849.19 2375.381 849.19 L 2375.381 849.19 L 2375.381 849.19 Z  M 2521.955 705.838 L 2521.955 705.838 Q 2571.473 705.838 2571.473 760.516 L 2571.473 760.516 L 2571.473 847.207 L 2548.553 847.207 L 2548.553 761.932 L 2548.553 761.932 Q 2548.553 742.667 2541.055 733.885 L 2541.055 733.885 L 2541.055 733.885 Q 2533.556 725.102 2517.145 725.102 L 2517.145 725.102 L 2517.145 725.102 Q 2498.186 725.102 2486.868 736.718 L 2486.868 736.718 L 2486.868 736.718 Q 2475.549 748.333 2475.549 768.165 L 2475.549 768.165 L 2475.549 847.207 L 2452.629 847.207 L 2452.629 647.477 L 2475.549 647.477 L 2475.549 731.335 L 2475.549 731.335 Q 2482.34 718.87 2494.366 712.354 L 2494.366 712.354 L 2494.366 712.354 Q 2506.392 705.838 2521.955 705.838 L 2521.955 705.838 L 2521.955 705.838 Z  M 2660.04 849.19 L 2660.04 849.19 Q 2625.236 849.19 2604.863 831.342 L 2604.863 831.342 L 2612.503 814.344 L 2612.503 814.344 Q 2623.538 823.126 2634.998 826.951 L 2634.998 826.951 L 2634.998 826.951 Q 2646.458 830.775 2660.889 830.775 L 2660.889 830.775 L 2660.889 830.775 Q 2676.169 830.775 2684.233 825.534 L 2684.233 825.534 L 2684.233 825.534 Q 2692.298 820.293 2692.298 810.377 L 2692.298 810.377 L 2692.298 810.377 Q 2692.298 802.162 2686.922 797.345 L 2686.922 797.345 L 2686.922 797.345 Q 2681.545 792.529 2669.095 789.696 L 2669.095 789.696 L 2645.892 784.313 L 2645.892 784.313 Q 2628.349 780.347 2619.011 770.715 L 2619.011 770.715 L 2619.011 770.715 Q 2609.673 761.082 2609.673 746.917 L 2609.673 746.917 L 2609.673 746.917 Q 2609.673 728.502 2624.104 717.17 L 2624.104 717.17 L 2624.104 717.17 Q 2638.535 705.838 2662.587 705.838 L 2662.587 705.838 L 2662.587 705.838 Q 2677.018 705.838 2690.034 710.512 L 2690.034 710.512 L 2690.034 710.512 Q 2703.05 715.187 2711.822 723.969 L 2711.822 723.969 L 2704.182 740.684 L 2704.182 740.684 Q 2685.224 724.536 2662.587 724.536 L 2662.587 724.536 L 2662.587 724.536 Q 2648.156 724.536 2640.091 730.06 L 2640.091 730.06 L 2640.091 730.06 Q 2632.027 735.585 2632.027 745.5 L 2632.027 745.5 L 2632.027 745.5 Q 2632.027 753.716 2636.979 758.674 L 2636.979 758.674 L 2636.979 758.674 Q 2641.931 763.632 2652.966 766.182 L 2652.966 766.182 L 2676.452 771.848 L 2676.452 771.848 Q 2695.693 776.381 2705.031 785.588 L 2705.031 785.588 L 2705.031 785.588 Q 2714.369 794.796 2714.369 809.528 L 2714.369 809.528 L 2714.369 809.528 Q 2714.369 827.659 2699.796 838.425 L 2699.796 838.425 L 2699.796 838.425 Q 2685.224 849.19 2660.04 849.19 L 2660.04 849.19 L 2660.04 849.19 Z  M 2864.622 773.264 L 2864.622 781.764 L 2763.887 781.764 L 2763.887 781.764 Q 2765.019 805.845 2776.903 818.168 L 2776.903 818.168 L 2776.903 818.168 Q 2788.788 830.492 2810.576 830.492 L 2810.576 830.492 L 2810.576 830.492 Q 2834.628 830.492 2854.718 814.06 L 2854.718 814.06 L 2862.358 830.775 L 2862.358 830.775 Q 2853.303 839.275 2839.155 844.233 L 2839.155 844.233 L 2839.155 844.233 Q 2825.007 849.19 2810.293 849.19 L 2810.293 849.19 L 2810.293 849.19 Q 2778.035 849.19 2759.501 830.209 L 2759.501 830.209 L 2759.501 830.209 Q 2740.967 811.227 2740.967 777.797 L 2740.967 777.797 L 2740.967 777.797 Q 2740.967 756.549 2749.173 740.259 L 2749.173 740.259 L 2749.173 740.259 Q 2757.379 723.969 2772.235 714.903 L 2772.235 714.903 L 2772.235 714.903 Q 2787.09 705.838 2806.048 705.838 L 2806.048 705.838 L 2806.048 705.838 Q 2833.496 705.838 2849.059 723.827 L 2849.059 723.827 L 2849.059 723.827 Q 2864.622 741.817 2864.622 773.264 L 2864.622 773.264 L 2864.622 773.264 Z  M 2806.331 723.686 L 2806.331 723.686 Q 2788.222 723.686 2777.328 735.018 L 2777.328 735.018 L 2777.328 735.018 Q 2766.434 746.35 2764.453 767.032 L 2764.453 767.032 L 2844.531 767.032 L 2844.531 767.032 Q 2843.965 746.067 2834.062 734.876 L 2834.062 734.876 L 2834.062 734.876 Q 2824.158 723.686 2806.331 723.686 L 2806.331 723.686 L 2806.331 723.686 Z  M 2967.62 705.838 L 2967.62 705.838 Q 3017.138 705.838 3017.138 760.516 L 3017.138 760.516 L 3017.138 847.207 L 2994.218 847.207 L 2994.218 761.932 L 2994.218 761.932 Q 2994.218 742.667 2986.72 733.885 L 2986.72 733.885 L 2986.72 733.885 Q 2979.221 725.102 2962.809 725.102 L 2962.809 725.102 L 2962.809 725.102 Q 2943.851 725.102 2932.532 736.718 L 2932.532 736.718 L 2932.532 736.718 Q 2921.214 748.333 2921.214 768.165 L 2921.214 768.165 L 2921.214 847.207 L 2898.294 847.207 L 2898.294 709.237 L 2920.931 709.237 L 2920.931 731.902 L 2920.931 731.902 Q 2927.722 719.153 2939.889 712.495 L 2939.889 712.495 L 2939.889 712.495 Q 2952.057 705.838 2967.62 705.838 L 2967.62 705.838 L 2967.62 705.838 Z " fill="rgb(255,255,255)"/><path d=" M 1520.486 225.672 L 1324.489 492.081 L 1527.929 492.081 L 1527.929 581.505 L 1198.579 581.505 L 1198.579 497.67 L 1392.716 233.124 L 1198.579 233.124 L 1198.579 143.7 L 1520.486 143.7 L 1520.486 225.672 L 1520.486 225.672 Z  M 1856.039 425.013 L 1856.039 449.853 L 1667.484 449.853 L 1667.484 449.853 Q 1672.446 479.661 1689.193 492.702 L 1689.193 492.702 L 1689.193 492.702 Q 1705.94 505.743 1736.952 505.743 L 1736.952 505.743 L 1736.952 505.743 Q 1759.281 505.743 1782.23 498.291 L 1782.23 498.291 L 1782.23 498.291 Q 1805.179 490.839 1823.166 477.798 L 1823.166 477.798 L 1851.077 550.455 L 1851.077 550.455 Q 1828.128 567.222 1795.875 576.847 L 1795.875 576.847 L 1795.875 576.847 Q 1763.622 586.473 1731.37 586.473 L 1731.37 586.473 L 1731.37 586.473 Q 1678.649 586.473 1640.194 567.222 L 1640.194 567.222 L 1640.194 567.222 Q 1601.738 547.971 1580.96 511.953 L 1580.96 511.953 L 1580.96 511.953 Q 1560.182 475.935 1560.182 427.497 L 1560.182 427.497 L 1560.182 427.497 Q 1560.182 381.543 1579.72 345.215 L 1579.72 345.215 L 1579.72 345.215 Q 1599.257 308.886 1634.301 288.704 L 1634.301 288.704 L 1634.301 288.704 Q 1669.345 268.521 1713.382 268.521 L 1713.382 268.521 L 1713.382 268.521 Q 1779.128 268.521 1817.584 310.439 L 1817.584 310.439 L 1817.584 310.439 Q 1856.039 352.356 1856.039 425.013 L 1856.039 425.013 L 1856.039 425.013 Z  M 1716.484 343.041 L 1716.484 343.041 Q 1672.446 343.041 1666.244 397.689 L 1666.244 397.689 L 1763.622 397.689 L 1763.622 397.689 Q 1759.901 343.041 1716.484 343.041 L 1716.484 343.041 L 1716.484 343.041 Z  M 2016.682 581.505 L 1906.279 581.505 L 1906.279 275.973 L 2016.682 275.973 L 2016.682 581.505 L 2016.682 581.505 Z  M 1903.798 239.188 L 1903.798 144.207 L 2019.163 144.207 L 2019.163 239.188 L 1903.798 239.188 L 1903.798 239.188 Z  M 2262.92 506.985 L 2262.92 506.985 Q 2276.565 506.985 2293.312 505.122 L 2293.312 505.122 L 2287.73 583.989 L 2287.73 583.989 Q 2267.882 586.473 2249.274 586.473 L 2249.274 586.473 L 2249.274 586.473 Q 2174.845 586.473 2141.042 555.113 L 2141.042 555.113 L 2141.042 555.113 Q 2107.238 523.752 2107.238 457.926 L 2107.238 457.926 L 2107.238 357.324 L 2050.176 357.324 L 2050.176 275.973 L 2107.238 275.973 L 2107.238 144.17 L 2217.642 144.17 L 2217.642 275.973 L 2290.831 275.973 L 2290.831 357.324 L 2217.642 357.324 L 2217.642 458.547 L 2217.642 458.547 Q 2217.642 506.985 2262.92 506.985 L 2262.92 506.985 L 2262.92 506.985 Z  M 2529.005 275.973 L 2639.409 275.973 L 2639.409 581.505 L 2532.106 581.505 L 2532.106 540.519 L 2532.106 540.519 Q 2517.84 562.875 2495.822 574.674 L 2495.822 574.674 L 2495.822 574.674 Q 2473.803 586.473 2445.272 586.473 L 2445.272 586.473 L 2445.272 586.473 Q 2386.349 586.473 2357.817 553.871 L 2357.817 553.871 L 2357.817 553.871 Q 2329.286 521.268 2329.286 454.821 L 2329.286 454.821 L 2329.286 275.973 L 2439.69 275.973 L 2439.69 457.305 L 2439.69 457.305 Q 2439.69 502.017 2478.145 502.017 L 2478.145 502.017 L 2478.145 502.017 Q 2500.474 502.017 2514.739 485.871 L 2514.739 485.871 L 2514.739 485.871 Q 2529.005 469.725 2529.005 443.643 L 2529.005 443.643 L 2529.005 275.973 L 2529.005 275.973 Z  M 2909.215 268.521 L 2909.215 268.521 Q 2963.797 268.521 2990.467 301.124 L 2990.467 301.124 L 2990.467 301.124 Q 3017.138 333.726 3017.138 400.173 L 3017.138 400.173 L 3017.138 581.505 L 2906.734 581.505 L 2906.734 405.141 L 2906.734 405.141 Q 2906.734 377.817 2897.12 365.397 L 2897.12 365.397 L 2897.12 365.397 Q 2887.507 352.977 2868.279 352.977 L 2868.279 352.977 L 2868.279 352.977 Q 2843.469 352.977 2828.893 368.813 L 2828.893 368.813 L 2828.893 368.813 Q 2814.318 384.648 2814.318 411.351 L 2814.318 411.351 L 2814.318 581.505 L 2703.914 581.505 L 2703.914 275.973 L 2811.216 275.973 L 2811.216 316.959 L 2811.216 316.959 Q 2827.343 293.361 2852.773 280.941 L 2852.773 280.941 L 2852.773 280.941 Q 2878.203 268.521 2909.215 268.521 L 2909.215 268.521 L 2909.215 268.521 Z  M 3296.248 275.973 L 3404.791 275.973 L 3404.791 544.245 L 3404.791 544.245 Q 3404.791 620.007 3359.823 659.13 L 3359.823 659.13 L 3359.823 659.13 Q 3314.856 698.253 3226.781 698.253 L 3226.781 698.253 L 3226.781 698.253 Q 3185.224 698.253 3146.149 688.628 L 3146.149 688.628 L 3146.149 688.628 Q 3107.073 679.002 3078.542 661.614 L 3078.542 661.614 L 3106.453 586.473 L 3106.453 586.473 Q 3134.984 601.377 3165.687 609.45 L 3165.687 609.45 L 3165.687 609.45 Q 3196.389 617.523 3223.68 617.523 L 3223.68 617.523 L 3223.68 617.523 Q 3260.274 617.523 3277.951 601.688 L 3277.951 601.688 L 3277.951 601.688 Q 3295.628 585.852 3295.628 551.697 L 3295.628 551.697 L 3295.628 528.099 L 3295.628 528.099 Q 3281.983 548.592 3256.553 560.701 L 3256.553 560.701 L 3256.553 560.701 Q 3231.122 572.811 3201.351 572.811 L 3201.351 572.811 L 3201.351 572.811 Q 3161.655 572.811 3130.643 554.181 L 3130.643 554.181 L 3130.643 554.181 Q 3099.63 535.551 3082.264 501.085 L 3082.264 501.085 L 3082.264 501.085 Q 3064.897 466.62 3064.897 421.287 L 3064.897 421.287 L 3064.897 421.287 Q 3064.897 375.954 3082.264 341.178 L 3082.264 341.178 L 3082.264 341.178 Q 3099.63 306.402 3130.643 287.462 L 3130.643 287.462 L 3130.643 287.462 Q 3161.655 268.521 3201.351 268.521 L 3201.351 268.521 L 3201.351 268.521 Q 3231.743 268.521 3257.173 280.941 L 3257.173 280.941 L 3257.173 280.941 Q 3282.603 293.361 3296.248 315.096 L 3296.248 315.096 L 3296.248 275.973 L 3296.248 275.973 Z  M 3234.844 490.218 L 3234.844 490.218 Q 3263.995 490.218 3280.122 471.899 L 3280.122 471.899 L 3280.122 471.899 Q 3296.248 453.579 3296.248 421.287 L 3296.248 421.287 L 3296.248 421.287 Q 3296.248 388.374 3280.122 369.744 L 3280.122 369.744 L 3280.122 369.744 Q 3263.995 351.114 3234.844 351.114 L 3234.844 351.114 L 3234.844 351.114 Q 3206.313 351.114 3190.186 369.434 L 3190.186 369.434 L 3190.186 369.434 Q 3174.06 387.753 3174.06 421.287 L 3174.06 421.287 L 3174.06 421.287 Q 3174.06 453.579 3190.496 471.899 L 3190.496 471.899 L 3190.496 471.899 Q 3206.933 490.218 3234.844 490.218 L 3234.844 490.218 L 3234.844 490.218 Z  M 3592.105 586.473 L 3592.105 586.473 Q 3548.068 586.473 3510.853 577.158 L 3510.853 577.158 L 3510.853 577.158 Q 3473.638 567.843 3448.208 549.834 L 3448.208 549.834 L 3476.119 474.693 L 3476.119 474.693 Q 3500.929 490.839 3532.562 500.465 L 3532.562 500.465 L 3532.562 500.465 Q 3564.194 510.09 3593.346 510.09 L 3593.346 510.09 L 3593.346 510.09 Q 3611.333 510.09 3621.257 504.812 L 3621.257 504.812 L 3621.257 504.812 Q 3631.181 499.533 3631.181 490.218 L 3631.181 490.218 L 3631.181 490.218 Q 3631.181 482.145 3624.048 477.798 L 3624.048 477.798 L 3624.048 477.798 Q 3616.915 473.451 3595.206 468.483 L 3595.206 468.483 L 3546.207 457.305 L 3546.207 457.305 Q 3499.689 446.748 3479.221 426.255 L 3479.221 426.255 L 3479.221 426.255 Q 3458.752 405.762 3458.752 367.881 L 3458.752 367.881 L 3458.752 367.881 Q 3458.752 338.694 3476.119 316.028 L 3476.119 316.028 L 3476.119 316.028 Q 3493.486 293.361 3524.809 280.941 L 3524.809 280.941 L 3524.809 280.941 Q 3556.131 268.521 3595.827 268.521 L 3595.827 268.521 L 3595.827 268.521 Q 3628.7 268.521 3661.263 278.147 L 3661.263 278.147 L 3661.263 278.147 Q 3693.825 287.772 3720.496 305.16 L 3720.496 305.16 L 3691.965 377.196 L 3691.965 377.196 Q 3667.155 361.671 3642.035 353.288 L 3642.035 353.288 L 3642.035 353.288 Q 3616.915 344.904 3594.586 344.904 L 3594.586 344.904 L 3594.586 344.904 Q 3576.599 344.904 3566.675 350.493 L 3566.675 350.493 L 3566.675 350.493 Q 3556.751 356.082 3556.751 366.639 L 3556.751 366.639 L 3556.751 366.639 Q 3556.751 372.849 3562.954 376.886 L 3562.954 376.886 L 3562.954 376.886 Q 3569.156 380.922 3584.662 384.648 L 3584.662 384.648 L 3636.143 396.447 L 3636.143 396.447 Q 3684.522 407.004 3706.23 429.049 L 3706.23 429.049 L 3706.23 429.049 Q 3727.939 451.095 3727.939 488.976 L 3727.939 488.976 L 3727.939 488.976 Q 3727.939 534.309 3691.655 560.391 L 3691.655 560.391 L 3691.655 560.391 Q 3655.37 586.473 3592.105 586.473 L 3592.105 586.473 L 3592.105 586.473 Z  M 3995.885 421.908 L 4119.314 581.505 L 3985.961 581.505 L 3883.62 451.716 L 3883.62 581.505 L 3773.217 581.505 L 3773.217 144.16 L 3883.62 144.16 L 3883.62 401.415 L 3984.1 276.594 L 4114.972 276.594 L 3995.885 421.908 L 3995.885 421.908 Z  M 4273.134 268.521 L 4273.134 268.521 Q 4345.083 268.521 4379.506 301.745 L 4379.506 301.745 L 4379.506 301.745 Q 4413.93 334.968 4413.93 405.141 L 4413.93 405.141 L 4413.93 581.505 L 4310.349 581.505 L 4310.349 538.656 L 4310.349 538.656 Q 4301.666 561.012 4281.198 573.742 L 4281.198 573.742 L 4281.198 573.742 Q 4260.73 586.473 4232.198 586.473 L 4232.198 586.473 L 4232.198 586.473 Q 4200.566 586.473 4175.136 573.742 L 4175.136 573.742 L 4175.136 573.742 Q 4149.706 561.012 4135.13 538.345 L 4135.13 538.345 L 4135.13 538.345 Q 4120.554 515.679 4120.554 487.113 L 4120.554 487.113 L 4120.554 487.113 Q 4120.554 454.2 4137.611 434.639 L 4137.611 434.639 L 4137.611 434.639 Q 4154.668 415.077 4191.882 406.383 L 4191.882 406.383 L 4191.882 406.383 Q 4229.097 397.689 4292.362 397.689 L 4292.362 397.689 L 4309.109 397.689 L 4309.109 390.237 L 4309.109 390.237 Q 4309.109 367.26 4298.564 358.256 L 4298.564 358.256 L 4298.564 358.256 Q 4288.02 349.251 4261.35 349.251 L 4261.35 349.251 L 4261.35 349.251 Q 4240.261 349.251 4212.661 357.635 L 4212.661 357.635 L 4212.661 357.635 Q 4185.06 366.018 4160.87 379.059 L 4160.87 379.059 L 4132.959 306.402 L 4132.959 306.402 Q 4159.63 290.256 4199.635 279.389 L 4199.635 279.389 L 4199.635 279.389 Q 4239.641 268.521 4273.134 268.521 L 4273.134 268.521 L 4273.134 268.521 Z  M 4258.249 512.574 L 4258.249 512.574 Q 4280.577 512.574 4294.843 496.739 L 4294.843 496.739 L 4294.843 496.739 Q 4309.109 480.903 4309.109 456.063 L 4309.109 456.063 L 4309.109 448.611 L 4299.185 448.611 L 4299.185 448.611 Q 4259.489 448.611 4242.742 455.753 L 4242.742 455.753 L 4242.742 455.753 Q 4225.996 462.894 4225.996 479.661 L 4225.996 479.661 L 4225.996 479.661 Q 4225.996 493.944 4234.989 503.259 L 4234.989 503.259 L 4234.989 503.259 Q 4243.983 512.574 4258.249 512.574 L 4258.249 512.574 L 4258.249 512.574 Z  M 4704.825 267.279 L 4711.028 358.566 L 4650.864 364.776 L 4650.864 364.776 Q 4614.89 368.502 4600.624 384.027 L 4600.624 384.027 L 4600.624 384.027 Q 4586.358 399.552 4586.358 428.118 L 4586.358 428.118 L 4586.358 581.505 L 4475.955 581.505 L 4475.955 275.973 L 4580.776 275.973 L 4580.776 328.758 L 4580.776 328.758 Q 4591.32 300.813 4615.51 286.22 L 4615.51 286.22 L 4615.51 286.22 Q 4639.699 271.626 4674.433 269.763 L 4674.433 269.763 L 4704.825 267.279 L 4704.825 267.279 Z  M 4951.062 506.985 L 4951.062 506.985 Q 4964.708 506.985 4981.454 505.122 L 4981.454 505.122 L 4975.872 583.989 L 4975.872 583.989 Q 4956.024 586.473 4937.417 586.473 L 4937.417 586.473 L 4937.417 586.473 Q 4862.988 586.473 4829.184 555.113 L 4829.184 555.113 L 4829.184 555.113 Q 4795.381 523.752 4795.381 457.926 L 4795.381 457.926 L 4795.381 357.324 L 4738.318 357.324 L 4738.318 275.973 L 4795.381 275.973 L 4795.381 144.16 L 4905.785 144.16 L 4905.785 275.973 L 4978.973 275.973 L 4978.973 357.324 L 4905.785 357.324 L 4905.785 458.547 L 4905.785 458.547 Q 4905.785 506.985 4951.062 506.985 L 4951.062 506.985 L 4951.062 506.985 Z  M 5301.501 425.013 L 5301.501 449.853 L 5112.946 449.853 L 5112.946 449.853 Q 5117.908 479.661 5134.655 492.702 L 5134.655 492.702 L 5134.655 492.702 Q 5151.402 505.743 5182.414 505.743 L 5182.414 505.743 L 5182.414 505.743 Q 5204.743 505.743 5227.692 498.291 L 5227.692 498.291 L 5227.692 498.291 Q 5250.641 490.839 5268.628 477.798 L 5268.628 477.798 L 5296.539 550.455 L 5296.539 550.455 Q 5273.59 567.222 5241.337 576.847 L 5241.337 576.847 L 5241.337 576.847 Q 5209.084 586.473 5176.832 586.473 L 5176.832 586.473 L 5176.832 586.473 Q 5124.111 586.473 5085.656 567.222 L 5085.656 567.222 L 5085.656 567.222 Q 5047.2 547.971 5026.422 511.953 L 5026.422 511.953 L 5026.422 511.953 Q 5005.644 475.935 5005.644 427.497 L 5005.644 427.497 L 5005.644 427.497 Q 5005.644 381.543 5025.182 345.215 L 5025.182 345.215 L 5025.182 345.215 Q 5044.719 308.886 5079.763 288.704 L 5079.763 288.704 L 5079.763 288.704 Q 5114.807 268.521 5158.845 268.521 L 5158.845 268.521 L 5158.845 268.521 Q 5224.591 268.521 5263.046 310.439 L 5263.046 310.439 L 5263.046 310.439 Q 5301.501 352.356 5301.501 425.013 L 5301.501 425.013 L 5301.501 425.013 Z  M 5161.946 343.041 L 5161.946 343.041 Q 5117.908 343.041 5111.706 397.689 L 5111.706 397.689 L 5209.084 397.689 L 5209.084 397.689 Q 5205.363 343.041 5161.946 343.041 L 5161.946 343.041 L 5161.946 343.041 Z " fill="rgb(255,255,255)"/><path d=" M 428.404 108.488 L 441.414 111.561 L 451.386 109.256 L 457.906 110.792 L 450.235 120.393 L 457.139 143.049 L 454.071 148.041 L 447.55 154.952 L 440.263 154.185 L 438.345 152.648 L 434.894 142.665 L 433.743 140.744 L 435.278 136.52 L 427.606 129.608 L 418.018 128.456 L 398.074 120.009 L 390.404 107.721 L 385.418 104.265 L 376.213 105.801 L 366.624 116.553 L 363.557 139.209 L 371.228 140.744 L 378.898 137.673 L 381.966 141.128 L 382.734 147.656 L 380.815 164.553 L 375.829 176.072 L 368.926 184.137 L 362.407 184.904 L 354.735 181.064 L 344.38 164.937 L 338.243 164.168 L 333.257 166.856 L 327.122 158.408 L 325.97 156.105 L 324.82 143.049 L 331.723 146.12 L 344.38 141.513 L 347.832 139.977 L 350.133 133.064 L 333.257 94.665 L 322.518 93.128 L 318.683 76.616 L 320.984 68.937 L 316.765 66.248 L 294.52 63.177 L 271.892 65.096 L 255.4 68.937 L 226.252 73.16 L 214.746 77.385 L 206.691 78.537 L 198.254 73.545 L 162.201 72.009 L 145.325 77.001 L 131.519 86.984 L 110.041 108.873 L 109.275 112.328 L 119.629 120.009 L 123.081 126.92 L 112.343 138.057 L 106.973 129.992 L 99.687 125.001 L 96.616 125.768 L 95.084 144.584 L 90.097 183.368 L 86.262 190.665 L 92.399 199.496 L 136.505 202.568 L 153.764 206.792 L 152.997 207.944 L 141.107 207.561 L 138.04 219.465 L 136.121 230.601 L 132.669 254.024 L 123.466 275.145 L 124.232 281.288 L 128.452 284.744 L 127.3 297.416 L 129.986 324.681 L 126.149 333.513 L 121.164 348.873 L 114.26 359.24 L 106.206 371.528 L 98.536 381.896 L 92.399 417.608 L 87.796 459.08 L 84.728 462.92 L 76.674 460.232 L 70.153 457.545 L 57.113 459.08 L 52.127 454.856 L 34.102 454.856 L 21.061 454.088 L 9.554 461.768 L 11.089 476.36 L 21.061 486.728 L 12.24 485.96 L 1.501 489.032 L 6.487 502.088 L 5.72 506.312 L 4.569 513.608 L 13.774 521.288 L 14.541 522.057 L 21.445 525.513 L 39.472 526.28 L 39.087 529.736 L 60.565 535.496 L 67.852 525.128 L 70.153 523.977 L 72.455 528.968 L 74.757 538.952 L 80.125 549.32 L 85.111 552.009 L 88.18 560.456 L 87.796 568.52 L 76.29 591.944 L 79.358 603.848 L 84.728 609.992 L 92.399 609.608 L 97.769 602.696 L 117.713 602.312 L 119.629 602.312 L 138.039 603.465 L 142.642 597.32 L 145.71 597.32 L 154.147 593.096 L 157.599 588.488 L 168.338 585.416 L 171.023 578.505 L 176.777 575.816 L 190.967 566.601 L 192.5 565.832 L 193.651 565.448 L 195.57 566.601 L 203.623 563.912 L 209.761 549.32 L 210.143 547.017 L 201.321 542.792 L 211.677 527.049 L 229.32 534.345 L 235.073 555.465 L 243.127 558.92 L 250.798 563.912 L 257.702 567.368 L 264.221 568.137 L 275.727 563.912 L 282.247 570.057 L 285.699 570.44 L 288.001 581.576 L 291.836 585.801 L 297.204 593.865 L 288.001 592.328 L 283.781 595.4 L 283.781 599.24 L 289.534 605.001 L 281.864 608.841 L 281.864 619.592 L 280.713 623.432 L 275.727 628.809 L 276.111 631.881 L 281.864 639.561 L 302.191 643.017 L 298.739 649.16 L 299.506 664.137 L 291.069 663.752 L 288.001 667.592 L 270.741 675.272 L 278.796 685.256 L 278.028 687.177 L 292.603 693.705 L 304.492 682.185 L 310.629 682.185 L 319.45 686.408 L 327.888 681.032 L 337.476 681.032 L 341.695 681.032 L 343.612 675.656 L 354.352 663.368 L 358.188 663.752 L 359.338 659.912 L 372.379 662.217 L 382.734 667.209 L 387.336 669.128 L 391.938 666.44 L 392.321 658.76 L 401.909 651.849 L 408.046 650.696 L 417.251 640.713 L 407.663 636.873 L 400.376 629.576 L 406.13 609.608 L 405.363 606.537 L 405.744 591.177 L 401.527 574.28 L 390.02 566.217 L 371.994 556.616 L 368.926 538.185 L 385.418 542.792 L 391.172 541.256 L 395.773 542.792 L 404.978 537.416 L 406.513 526.28 L 417.251 517.832 L 429.141 522.824 L 450.618 511.688 L 462.125 523.592 L 461.741 544.713 L 465.193 550.473 L 461.741 563.145 L 464.427 563.145 L 470.947 565.832 L 477.849 563.145 L 480.534 561.992 L 495.492 565.832 L 511.217 560.841 L 515.053 561.225 L 529.243 540.873 L 541.899 524.744 L 551.488 525.896 L 561.076 533.576 L 551.104 546.248 L 558.009 557.768 L 551.488 573.513 L 546.502 580.809 L 542.666 585.032 L 528.476 590.024 L 521.956 612.681 L 545.734 624.584 L 542.283 628.809 L 538.831 633.416 L 538.448 643.784 L 525.024 639.177 L 531.928 648.393 L 530.394 661.064 L 536.146 659.912 L 544.2 656.456 L 561.461 662.217 L 564.528 667.592 L 558.391 676.041 L 563.377 676.041 L 571.816 686.024 L 567.981 696.393 L 572.582 713.673 L 567.596 718.665 L 572.199 726.345 L 577.184 722.505 L 590.225 722.505 L 593.294 729.032 L 589.458 729.801 L 589.841 738.632 L 594.443 742.473 L 598.28 741.705 L 603.648 744.393 L 606.333 754.76 L 603.266 767.432 L 609.785 763.977 L 620.524 767.049 L 632.796 764.36 L 632.796 767.432 L 627.045 773.576 L 626.66 786.248 L 630.112 790.088 L 622.059 797.768 L 620.907 800.072 L 615.538 803.528 L 614.004 811.209 L 617.456 813.513 L 617.073 820.809 L 618.223 822.345 L 612.47 843.849 L 622.442 845.385 L 623.975 844.232 L 624.359 844.232 L 627.811 843.849 L 633.564 842.696 L 640.451 841.545 L 639.684 848.456 L 640.835 851.145 L 646.205 853.448 L 649.656 851.145 L 657.711 853.448 L 662.696 852.296 L 668.066 850.76 L 672.285 850.377 L 673.436 858.44 L 684.558 869.96 L 684.941 874.952 L 681.489 874.952 L 671.134 869.96 L 671.517 875.337 L 676.12 881.48 L 667.3 880.328 L 668.066 882.632 L 668.833 889.928 L 661.162 893.768 L 673.052 914.505 L 671.134 921.032 L 674.968 931.017 L 671.901 936.009 L 665.381 936.776 L 657.328 941.385 L 658.86 949.064 L 652.725 952.137 L 652.725 953.288 L 654.26 955.977 L 656.943 960.201 L 672.668 969.416 L 682.257 970.568 L 695.298 977.48 L 703.733 972.873 L 704.502 968.648 L 704.502 961.353 L 696.447 968.265 L 689.161 954.057 L 688.01 951.368 L 706.802 942.152 L 712.173 934.088 L 714.09 934.088 L 720.226 936.776 L 722.91 947.912 L 727.13 948.296 L 722.91 932.553 L 735.184 931.017 L 741.705 941.385 L 740.556 946.76 L 744.773 945.608 L 749.759 939.849 L 755.128 938.696 L 759.348 934.856 L 760.115 930.632 L 766.634 930.632 L 767.784 928.328 L 768.935 924.488 L 771.62 924.873 L 775.84 930.632 L 776.988 925.256 L 793.48 926.792 L 793.866 926.408 L 790.796 922.185 L 798.085 921.032 L 801.536 914.505 L 799.617 912.968 L 805.372 905.673 L 813.425 909.128 L 821.862 904.904 L 828 901.832 L 829.918 894.92 L 838.355 891.465 L 843.341 884.937 L 842.958 879.56 L 846.409 874.952 L 846.026 867.272 L 861.367 866.889 L 872.489 872.648 L 875.94 876.488 L 879.008 880.328 L 887.831 879.177 L 896.268 872.265 L 900.488 870.728 L 910.842 878.024 L 913.145 870.728 L 907.774 868.424 L 905.089 861.896 L 907.774 858.44 L 908.159 854.217 L 914.294 851.528 L 915.447 848.072 L 921.197 847.305 L 916.978 842.312 L 913.145 834.632 L 912.763 831.177 L 914.294 826.185 L 913.145 821.96 L 909.694 818.505 L 903.557 803.912 L 896.653 800.841 L 892.434 794.696 L 891.665 777.801 L 893.969 775.112 L 891.28 772.041 L 905.089 758.601 L 908.541 753.608 L 907.009 746.312 L 902.79 743.624 L 899.721 742.473 L 899.721 735.944 L 907.009 730.568 L 908.541 729.032 L 906.241 727.112 L 901.253 725.576 L 893.584 720.201 L 887.449 711.752 L 892.434 709.064 L 896.653 710.217 L 903.937 708.296 L 909.31 702.92 L 907.39 697.16 L 912.763 696.009 L 917.746 694.473 L 924.65 694.088 L 929.635 694.473 L 933.853 694.856 L 942.675 694.856 L 943.06 694.856 L 949.195 694.473 L 951.878 693.705 L 959.167 690.632 L 970.677 690.248 L 976.045 690.248 L 980.265 690.632 L 981.795 685.256 L 981.414 679.496 L 974.891 676.041 L 974.891 673.353 L 982.564 672.584 L 994.452 663.368 L 994.452 662.984 L 1000.205 656.072 L 1001.74 647.624 L 992.151 644.937 L 991.002 637.256 L 997.904 631.112 L 1004.809 629.192 L 1007.108 626.505 L 1000.973 621.513 L 1000.205 614.984 L 997.136 609.992 L 994.069 610.76 L 990.233 604.232 L 990.233 603.08 L 995.989 598.856 L 991.385 591.561 L 987.548 586.185 L 984.48 586.568 L 983.332 583.881 L 995.989 582.345 L 1002.509 578.889 L 1004.042 571.977 L 1002.509 571.209 L 986.399 558.152 L 981.795 552.393 L 971.442 539.721 L 971.442 535.496 L 974.891 526.665 L 976.811 525.896 L 988.317 525.896 L 975.276 509.001 L 971.442 499.4 L 974.127 494.024 L 979.496 485.96 L 980.265 478.28 L 977.96 477.513 L 969.138 484.041 L 963.388 475.209 L 956.1 462.537 L 947.279 449.096 L 945.744 443.721 L 938.841 445.256 L 937.306 431.432 L 930.018 420.296 L 930.403 414.537 L 930.018 410.696 L 931.17 397.641 L 948.43 393.416 L 963.388 392.265 L 968.372 392.648 L 981.029 381.513 L 982.18 372.681 L 987.164 371.145 L 1002.888 369.992 L 1004.425 369.608 L 1005.194 374.984 L 1009.026 376.52 L 1019.383 372.296 L 1033.19 374.984 L 1036.259 377.673 L 1038.558 381.896 L 1043.93 381.513 L 1049.681 378.44 L 1055.434 382.28 L 1070.775 373.064 L 1076.528 371.528 L 1081.517 366.152 L 1083.047 364.232 L 1084.584 363.08 L 1090.335 358.856 L 1098.008 357.705 L 1094.939 350.792 L 1096.088 344.648 L 1099.156 332.744 L 1109.129 335.816 L 1117.95 321.608 L 1105.676 315.465 L 1097.241 317.001 L 1091.104 311.24 L 1085.732 306.248 L 1078.063 307.784 L 1068.859 312.393 L 1060.038 315.465 L 1057.352 312.776 L 1055.05 309.705 L 1043.93 298.568 L 1043.547 291.656 L 1034.341 282.824 L 1033.19 282.44 L 1027.053 285.513 L 1024.368 285.128 L 1021.302 277.448 L 1026.286 271.305 L 1026.67 269.385 L 1013.63 265.16 L 1013.63 261.32 L 1001.74 255.561 L 991.002 237.896 L 984.097 229.448 L 979.111 212.553 L 969.908 212.168 L 965.688 207.177 L 963.004 207.177 L 954.567 216.776 L 952.263 215.24 L 952.648 219.08 L 945.363 223.688 L 938.075 220.232 L 929.254 214.856 L 928.869 211.017 L 915.062 199.496 L 904.321 199.881 L 903.557 199.881 L 891.28 202.185 L 890.9 202.185 L 889.365 203.337 L 875.94 199.881 L 873.64 199.881 L 862.9 194.12 L 854.078 189.513 L 846.793 184.52 L 841.039 179.528 L 832.602 179.912 L 826.85 176.841 L 816.11 182.217 L 809.206 191.049 L 796.165 190.28 L 790.413 183.752 L 781.976 179.145 L 775.84 169.16 L 769.32 165.32 L 764.332 176.072 L 754.361 183.752 L 748.99 179.145 L 741.321 181.832 L 740.556 175.305 L 735.184 167.624 L 727.131 177.992 L 706.419 149.96 L 705.653 136.52 L 707.57 131.528 L 697.982 129.992 L 685.708 127.305 L 676.505 120.776 L 672.285 118.473 L 667.3 115.4 L 658.094 108.105 L 655.027 102.728 L 651.574 86.601 L 648.506 79.688 L 643.904 73.545 L 630.112 61.256 L 624.95 49.633 L 623.8 46.961 L 623.033 45.041 L 616.896 36.209 L 614.977 33.137 L 612.676 29.297 L 598.869 21.232 L 593.116 18.928 L 586.212 17.776 L 581.227 18.161 L 547.092 17.776 L 540.573 20.08 L 527.325 23.641 L 515.819 27.096 L 498.944 25.177 L 488.972 24.024 L 483.22 20.568 L 472.863 12.889 L 467.111 2.52 L 451.769 5.977 L 440.648 19.032 L 436.812 28.632 L 428.757 57.416 L 427.606 60.104 L 423.387 70.088 L 421.086 78.92 L 421.086 89.673 L 426.072 101.96 L 428.404 108.488 L 428.404 108.488 L 428.404 108.488 L 428.404 108.488 Z " fill="rgb(255,255,255)"/><path d=" M 502.396 287.816 L 520.805 280.52 L 529.243 290.505 L 521.19 293.96 L 525.791 299.721 L 530.777 301.641 L 523.874 305.48 L 527.71 320.456 L 513.519 333.128 L 491.273 328.137 L 482.453 321.992 L 480.918 316.616 L 477.849 321.992 L 472.48 323.912 L 467.494 320.072 L 467.111 308.168 L 454.837 295.496 L 447.55 273.608 L 437.195 270.152 L 423.005 261.32 L 417.636 252.104 L 416.868 244.809 L 420.567 249.292 L 441.797 266.696 L 456.371 269.768 L 459.823 269.385 L 469.028 268.232 L 476.699 274.76 L 482.453 277.448 L 484.369 275.912 L 493.958 275.912 L 502.396 287.816 L 502.396 287.816 L 502.396 287.816 Z " fill="rgb(255,255,255)"/></g></svg>